<svg version="1.1" xmlns="http://www.w3.org/2000/svg" xmlns:xlink="http://www.w3.org/1999/xlink" width="50.23333" height="40.28888" viewBox="0,0,50.23333,40.28888"><g transform="translate(-214.88333,-159.85556)"><g data-paper-data="{&quot;isPaintingLayer&quot;:true}" fill-rule="nonzero" stroke-linecap="butt" stroke-linejoin="miter" stroke-miterlimit="10" stroke-dasharray="" stroke-dashoffset="0" style="mix-blend-mode: normal"><path d="M219.2129,198.89444c-1.7008,0 -3.07957,-1.6113 -3.07957,-3.59894v-30.591c0,-1.98764 1.37877,-3.59894 3.07957,-3.59894h41.57419c1.7008,0 3.07957,1.6113 3.07957,3.59894v30.591c0,1.98764 -1.37877,3.59894 -3.07957,3.59894z" fill="#b96200" stroke="#000000" stroke-width="2.5"/><path d="M228.81707,190.5c-1.88585,0 -3.41463,-1.52878 -3.41463,-3.41463v-14.17073c0,-1.88585 1.52878,-3.41463 3.41463,-3.41463h22.36585c1.88585,0 3.41463,1.52878 3.41463,3.41463v14.17073c0,1.88585 -1.52878,3.41463 -3.41463,3.41463z" fill="#000000" stroke="#000000" stroke-width="2.5"/><text transform="translate(225.78333,171.26993) scale(0.03242,0.03242)" font-size="40" xml:space="preserve" fill="#ffffff" fill-rule="nonzero" stroke="none" stroke-width="1" stroke-linecap="butt" stroke-linejoin="miter" stroke-miterlimit="10" stroke-dasharray="" stroke-dashoffset="0" font-family="Sans Serif" font-weight="normal" text-anchor="start" style="mix-blend-mode: normal"><tspan x="0" dy="0">Microsoft Windows [version 10.0.19045.4170]</tspan><tspan x="0" dy="46.15px">(c) Microsoft Corporation. Tous droits réservés.</tspan><tspan x="0" dy="46.15px"> </tspan><tspan x="0" dy="46.15px">C:\Users\</tspan></text></g></g></svg>