<svg version="1.1" xmlns="http://www.w3.org/2000/svg" xmlns:xlink="http://www.w3.org/1999/xlink" width="649.50001" height="497.41846" viewBox="0,0,649.50001,497.41846"><g transform="translate(90.89339,86.48753)"><g data-paper-data="{&quot;isPaintingLayer&quot;:true}" fill-rule="nonzero" stroke-linecap="butt" stroke-linejoin="miter" stroke-miterlimit="10" stroke-dasharray="" stroke-dashoffset="0" style="mix-blend-mode: normal"><path d="M-86.47502,410.93093c-2.4402,0 -4.41837,-1.95352 -4.41837,-4.36332v-488.69182c0,-2.4098 1.97817,-4.36332 4.41837,-4.36332h640.66327c2.4402,0 4.41837,1.95352 4.41837,4.36332v488.69182c0,2.4098 -1.97817,4.36332 -4.41837,4.36332z" fill="#000000" stroke="none" stroke-width="0"/><g><path d="M-43.47296,39.5c-2.20914,0 -4,-2.2002 -4,-4.91429v-33.17143c0,-2.71408 1.79086,-4.91429 4,-4.91429h581c2.20914,0 4,2.2002 4,4.91429v33.17143c0,2.71408 -1.79086,4.91429 -4,4.91429z" fill="#005b94" stroke="#000000" stroke-width="4"/><text transform="translate(63.52704,27.5) scale(0.5,0.5)" font-size="40" xml:space="preserve" fill="#ffffff" fill-rule="nonzero" stroke="none" stroke-width="1" stroke-linecap="butt" stroke-linejoin="miter" stroke-miterlimit="10" stroke-dasharray="" stroke-dashoffset="0" font-family="Sans Serif" font-weight="normal" text-anchor="start" style="mix-blend-mode: normal"><tspan x="0" dy="0">invite de commandes</tspan></text><path d="M391.64703,38.5c-1.72313,0 -3.12,-1.33362 -3.12,-2.97872v-29.04255c0,-1.6451 1.39687,-2.97872 3.12,-2.97872h32.76c1.72313,0 3.12,1.33362 3.12,2.97872v29.04255c0,1.6451 -1.39687,2.97872 -3.12,2.97872z" fill="#65c1ff" stroke="none" stroke-width="0"/><path d="M398.77704,30v-17h20.5v17z" fill="#65c1ff" stroke="#ffffff" stroke-width="5.5"/><path d="M347.64703,39.00001c-1.72313,0 -3.12,-1.33362 -3.12,-2.97872v-29.04255c0,-1.6451 1.39687,-2.97872 3.12,-2.97872h32.76c1.72313,0 3.12,1.33362 3.12,2.97872v29.04255c0,1.64511 -1.39687,2.97872 -3.12,2.97872z" fill="#65c1ff" stroke="none" stroke-width="0"/><path d="M351.27704,24.5v-6h26.5v6z" fill="#ffffff" stroke="#000000" stroke-width="0"/><g><path d="M19.28356,28.56327c-2.14348,0 -3.88111,-1.73763 -3.88111,-3.88111v-16.10661c0,-2.14348 1.73763,-3.88111 3.88111,-3.88111h25.42129c2.14348,0 3.88111,1.73763 3.88111,3.88111v16.10661c0,2.14348 -1.73763,3.88111 -3.88111,3.88111z" fill="#000000" stroke="#000000" stroke-width="2.5"/><text transform="translate(15.83538,6.70615) scale(0.03685,0.03685)" font-size="40" xml:space="preserve" fill="#ffffff" fill-rule="nonzero" stroke="none" stroke-width="1" stroke-linecap="butt" stroke-linejoin="miter" stroke-miterlimit="10" stroke-dasharray="" stroke-dashoffset="0" font-family="Sans Serif" font-weight="normal" text-anchor="start" style="mix-blend-mode: normal"><tspan x="0" dy="0">Microsoft Windows [version 10.0.19045.4170]</tspan><tspan x="0" dy="46.150000000000006px">(c) Microsoft Corporation. Tous droits réservés.</tspan><tspan x="0" dy="46.150000000000006px"> </tspan><tspan x="0" dy="46.150000000000006px">C:\Users\</tspan></text></g></g></g></g></svg>