<svg version="1.1" xmlns="http://www.w3.org/2000/svg" xmlns:xlink="http://www.w3.org/1999/xlink" width="349.29536" height="100.86683" viewBox="0,0,349.29536,100.86683"><g transform="translate(-3.25639,-127.03388)"><g data-paper-data="{&quot;isPaintingLayer&quot;:true}" fill-rule="nonzero" stroke="#000000" stroke-linejoin="miter" stroke-miterlimit="10" stroke-dasharray="" stroke-dashoffset="0" style="mix-blend-mode: normal"><path d="M4.37367,165.47551v-23.04159c0,-0.94263 0.76415,-1.70678 1.70678,-1.70678h12.80088c0.94263,0 1.70678,0.76415 1.70678,1.70678v23.04159c0,0.94263 -7.68053,10.6674 -7.68053,10.6674c0,0 -8.53392,-9.72477 -8.53392,-10.6674z" fill="#00fffd" stroke-width="2" stroke-linecap="butt"/><path d="M20.47839,179.12376c0,4.74755 -3.63142,8.5962 -8.111,8.5962c-4.47958,0 -8.111,-3.84865 -8.111,-8.5962c0,-4.74755 3.63142,-8.5962 8.111,-8.5962c4.08781,0 7.46933,3.20491 8.02953,7.37319c0.05369,0.39948 0.08147,0.80781 0.08147,1.22301z" fill="#ffc500" stroke-width="2" stroke-linecap="butt"/><path d="M10.08367,140.61486l0.22837,30.14518" fill="none" stroke-width="2" stroke-linecap="round"/><path d="M14.42275,170.53166l0.22837,-29.46006" fill="none" stroke-width="2" stroke-linecap="round"/><g fill="#c2c1a8" stroke-width="2" stroke-linecap="butt"><path d="M163.49209,167.32096c0.37379,1.87167 1.84787,7.49066 -2.30507,11.25152c-4.25091,3.84955 -10.5474,6.27497 -10.5474,6.27497c0,0 -1.24814,-3.7028 3.31988,-5.37504c3.53203,-1.29299 4.69505,-8.04102 4.83094,-10.18646c0.23385,-3.69218 -7.99166,-8.07612 -7.99166,-8.07612c0,0 4.49892,-3.33094 8.16063,-2.19474c3.57672,1.10984 4.0746,6.01214 4.53268,8.30587z"/><path d="M100.80451,166.40859c0.80454,-2.18843 2.00701,-6.92538 6.00197,-7.56825c4.08988,-0.65814 8.47137,3.16024 8.47137,3.16024c0,0 -9.4367,3.27132 -9.68803,6.91446c-0.14604,2.11694 0.18519,8.86653 3.805,10.57016c4.68155,2.20332 2.8361,5.67308 2.8361,5.67308c0,0 -6.43658,-3.1549 -10.48093,-7.45019c-3.95114,-4.1963 -1.60199,-9.51374 -0.94549,-11.29951z"/><path d="M131.03483,208.97231c-1.57377,0 -2.84955,-1.27579 -2.84955,-2.84955v-16.62237c0,-1.57377 1.27579,-2.84955 2.84955,-2.84955h2.84955c1.57377,0 2.84955,1.27579 2.84955,2.84955v16.62237c0,1.57377 -1.27579,2.84955 -2.84955,2.84955z"/><path d="M150.86293,176.83816c0,15.60042 -6.85274,21.69238 -19.24613,21.69238c-12.39338,0 -19.22277,-6.09197 -19.22277,-21.69238c0,-5.56783 -2.0398,-15.67658 1.59777,-19.35096c0.98053,-0.99046 1.84033,-2.7844 1.84033,-2.7844l15.55888,-0.53131l15.51348,0.62182c0,0 1.37169,0.75139 1.97972,1.20922c5.34298,4.0232 1.97871,13.46247 1.97871,20.83564z"/><path d="M121.66178,226.90072c-0.55124,0 -0.99812,-0.44687 -0.99812,-0.99812v-17.96609c0,-0.55124 0.44687,-0.99812 0.99812,-0.99812h20.96043c0.55124,0 0.99812,0.44687 0.99812,0.99812v17.96609c0,0.55124 -0.44687,0.99812 -0.99812,0.99812z"/></g><g fill="#fff200" stroke-width="2" stroke-linecap="butt"><path d="M260.55934,145.65482c0.50088,2.50803 2.47615,10.03746 -3.08879,15.07699c-5.69619,5.15839 -14.13348,8.40844 -14.13348,8.40844c0,0 -1.6725,-4.96174 4.44863,-7.20254c4.73291,-1.73261 6.29136,-10.77494 6.47345,-13.64982c0.31336,-4.9475 -10.70879,-10.82197 -10.70879,-10.82197c0,0 6.02855,-4.46345 10.93522,-2.94094c4.79279,1.48719 5.45996,8.05624 6.07377,11.12982z"/><path d="M176.55821,144.43226c1.07808,-2.93249 2.68939,-9.27998 8.04262,-10.14142c5.48042,-0.8819 11.3516,4.23472 11.3516,4.23472c0,0 -12.64515,4.38356 -12.98193,9.26536c-0.19568,2.83668 0.24815,11.88112 5.09868,14.16397c6.27327,2.95244 3.80036,7.6019 3.80036,7.6019c0,0 -8.625,-4.22756 -14.04441,-9.98323c-5.29451,-5.62303 -2.14666,-12.74837 -1.26695,-15.1413z"/><path d="M217.06673,201.46749c-2.10884,0 -3.81839,-1.70955 -3.81839,-3.81839v-22.27392c0,-2.10884 1.70955,-3.81839 3.81839,-3.81839h3.81839c2.10884,0 3.81839,1.70955 3.81839,3.81839v22.27392c0,2.10884 -1.70955,3.81839 -3.81839,3.81839z"/><path d="M243.63632,158.40783c0,20.90451 -9.18265,29.06771 -25.78974,29.06771c-16.60709,0 -25.75844,-8.16322 -25.75844,-29.06771c0,-7.46087 -2.73332,-21.00655 2.14101,-25.93021c1.31391,-1.32721 2.46604,-3.73109 2.46604,-3.73109l20.84885,-0.71196l20.78801,0.83324c0,0 1.83807,1.00686 2.65282,1.62035c7.15957,5.39107 2.65146,18.03965 2.65146,27.91968z"/><path d="M204.50688,225.49148c-0.73866,0 -1.33747,-0.59881 -1.33747,-1.33747v-24.0745c0,-0.73866 0.59881,-1.33747 1.33747,-1.33747h28.08691c0.73866,0 1.33747,0.5988 1.33747,1.33747v24.0745c0,0.73866 -0.5988,1.33747 -1.33747,1.33747z"/></g><g fill="#c2725f" stroke-width="2" stroke-linecap="butt"><path d="M79.71031,181.83027c0.25094,1.25654 1.24057,5.02884 -1.54751,7.55369c-2.85384,2.58439 -7.08098,4.21269 -7.08098,4.21269c0,0 -0.83794,-2.48587 2.2288,-3.60853c2.37122,-0.86805 3.15202,-5.39833 3.24325,-6.83866c0.157,-2.47874 -5.36519,-5.42189 -5.36519,-5.42189c0,0 3.02035,-2.23622 5.47863,-1.47344c2.40123,0.74509 2.73548,4.03624 3.04301,5.57613z"/><path d="M37.62509,181.21776c0.54013,-1.4692 1.3474,-4.64934 4.02941,-5.08093c2.74574,-0.44184 5.68724,2.12163 5.68724,2.12163c0,0 -6.33532,2.1962 -6.50405,4.64202c-0.09804,1.4212 0.12432,5.95254 2.55448,7.09626c3.14295,1.47919 1.90401,3.80861 1.90401,3.80861c0,0 -4.32119,-2.11804 -7.03636,-5.00168c-2.65259,-2.81718 -1.0755,-6.38703 -0.63475,-7.58591z"/><path d="M57.92017,209.79285c-1.05655,0 -1.91304,-0.8565 -1.91304,-1.91304v-11.15941c0,-1.05655 0.8565,-1.91304 1.91304,-1.91304h1.91304c1.05655,0 1.91304,0.8565 1.91304,1.91304v11.15941c0,1.05655 -0.8565,1.91304 -1.91304,1.91304z"/><path d="M71.23175,188.21964c0,10.47332 -4.60058,14.56315 -12.92086,14.56315c-8.32028,0 -12.90518,-4.08984 -12.90518,-14.56315c0,-3.73796 -1.36942,-10.52445 1.07266,-12.99124c0.65828,-0.66494 1.2355,-1.8693 1.2355,-1.8693l10.44544,-0.3567l10.41496,0.41745c0,0 0.92088,0.50444 1.32908,0.81181c3.587,2.70097 1.3284,9.03801 1.3284,13.98798z"/><path d="M51.62759,221.82907c-0.37008,0 -0.67008,-0.30001 -0.67008,-0.67008v-12.06151c0,-0.37008 0.30001,-0.67008 0.67008,-0.67008h14.07176c0.37008,0 0.67008,0.30001 0.67008,0.67008v12.06151c0,0.37008 -0.30001,0.67008 -0.67008,0.67008z"/></g><g stroke-linecap="butt"><path d="M311.68513,221.24717c-1.66429,0 -3.01347,-1.34918 -3.01347,-3.01347v-18.09311c0,-1.66429 1.34918,-3.01347 3.01347,-3.01347h2.50034c1.66429,0 3.01347,1.34918 3.01347,3.01347v18.09311c0,1.66429 -1.34918,3.01347 -3.01347,3.01347z" fill="#fff200" stroke-width="2"/><path d="M278.55052,224.90173c-1.66429,0 -3.01347,-0.43723 -3.01347,-0.97659v-6.57411c0,-0.53935 1.34918,-0.97659 3.01347,-0.97659h69.98776c1.66429,0 3.01347,0.43723 3.01347,0.97659v6.57411c0,0.53935 -1.34918,0.97659 -3.01347,0.97659z" fill="#fff200" stroke-width="2"/><path d="M348.23862,177.99581c0,17.34459 -15.58889,31.40516 -34.81877,31.40516c-19.22988,0 -34.81877,-14.06057 -34.81877,-31.40516c0,-17.34459 15.5889,-31.40516 34.81877,-31.40516c19.22988,0 34.81877,14.06057 34.81877,31.40516z" fill="#fff200" stroke-width="1.5"/><path d="M310.27841,167.18089c0,0.96592 -3.55788,2.12134 -6.91317,2.12134c-3.35529,0 -7.19247,-1.52782 -7.19247,-2.49373c0,-0.96592 4.30266,-2.58683 7.65795,-2.58683c1.69591,0 4.06944,-0.42175 5.26565,0.20666c1.17045,0.61488 1.18203,2.27485 1.18203,2.75256z" fill="#9966ff" stroke-width="1.5"/><path d="M343.39751,171.46341c0,1.31112 -3.47219,0.51204 -6.37724,0.51204c-2.90505,0 -5.44625,-1.15598 -5.44625,-2.46711c0,-1.31112 2.07571,-2.09471 4.98076,-2.09471c2.90505,0 6.84273,2.73865 6.84273,4.04977z" fill="#9966ff" stroke-width="1.5"/><path d="M329.43276,170.99792c0,0.79696 -3.24417,-0.79134 -7.82026,-0.79134c-3.69888,0 -7.07126,0.22958 -8.29966,-0.35314c-0.29132,-0.1382 -0.54468,-0.56472 -0.54468,-0.71749c0,-0.19301 -0.11659,-0.84266 0.33609,-1.01093c1.41656,-0.52656 4.94729,-0.71139 8.41515,-0.71139c4.57609,0 7.91335,2.78733 7.91335,3.58429z" fill="#fff200" stroke-width="1.5"/><path d="M316.1197,170.29968c0,3.90767 -5.12683,7.07546 -11.45109,7.07546c-6.32426,0 -11.45109,-3.1678 -11.45109,-7.07546c0,-2.40701 0.36254,-6.58145 3.33462,-7.85959c1.85297,-0.79686 5.68775,0.31862 8.11647,0.31862c2.61774,0 7.26469,-0.76064 9.19346,0.15266c2.73099,1.29316 2.25763,5.09809 2.25763,7.3883z" fill="#fff200" stroke-width="1.5"/><path d="M286.23515,164.57414c0,-1.56821 -2.02883,-0.51204 -0.51204,-0.51204c0.65437,0 2.3014,2.55555 3.85693,3.36433c2.0501,1.06593 4.00988,0.53858 4.00988,1.43023c0,1.00167 -0.10985,1.75196 -1.52621,0.88527c-0.8011,-0.4902 -2.99968,-0.55942 -3.54765,-0.55942c-1.51679,0 -2.2809,-3.04016 -2.2809,-4.60837z" fill="#fff200" stroke-width="1.5"/><path d="M345.53877,171.27722c0,1.92637 0.53891,4.44714 -1.79451,5.5796c-1.62146,0.78692 -5.64089,0.51833 -7.98081,0.51833c-3.03229,0 -6.7551,0.03819 -8.79329,-1.20112c-1.79802,-1.09327 -2.09921,-3.36654 -2.09921,-4.89682c0,-1.76317 0.79067,-3.90465 2.93075,-4.98778c1.82283,-0.92256 4.77797,-0.92397 7.40316,-0.92397c2.25732,0 4.90418,0.41404 6.60401,1.11662c2.59791,1.07378 3.7299,2.82151 3.7299,4.79513z" fill="#fff200" stroke-width="1.5"/><path d="M313.51295,160.71055c0,0.3777 -1.39785,1.70399 -3.73148,1.24898c-2.43155,-0.4741 -5.85512,-2.73855 -8.5575,-2.73855c-5.29593,0 -10.7994,4.0297 -10.7994,3.25844c0,-0.77125 5.03798,-6.33069 10.33391,-6.33069c5.29593,0 12.75447,3.79056 12.75447,4.56182z" fill="#fff200" stroke-width="1.5"/><path d="M343.863,161.68809c0,1.31112 -2.72315,2.18781 -6.65652,2.18781c-3.63049,0 -6.49903,1.16004 -7.13437,0.22171c-0.05301,-0.07829 -1.01174,-0.16729 -1.01174,-0.26825c0,-1.31112 3.65413,-3.21189 7.58751,-3.21189c3.93339,0 7.21512,-0.2405 7.21512,1.07063z" fill="#fff200" stroke-width="1.5"/><path d="M322.54348,202.6048c0,1.02833 -5.51596,4.56182 -11.1718,4.56182c-5.65584,0 -9.40293,-3.90588 -9.40293,-4.93421c0,-1.02833 5.14356,-0.2793 10.7994,-0.2793c5.65584,0 9.77532,-0.37665 9.77532,0.65169z" fill="#9966ff" stroke-width="1.5"/><path d="M327.42751,200.22714c0,0.7086 -5.10325,5.44317 -11.11144,7.68205c-2.71108,1.01025 -6.86683,0.6968 -8.6254,0.6968c-5.65584,0 -8.93744,-7.44361 -8.93744,-8.47195c0,-1.02833 5.14356,-0.2793 10.7994,-0.2793c5.65584,0 17.87488,-0.65594 17.87488,0.37239z" fill="#fff200" stroke-width="1.5"/><path d="M327.1984,187.89527c0,3.18785 -3.89997,3.91013 -9.17019,3.91013c-5.27021,0 -11.21835,-2.30496 -11.21835,-5.4928c0,-3.18785 5.76194,-6.79618 11.03215,-6.79618c5.27021,0 9.35638,5.19101 9.35638,8.37884z" fill="#fff200" stroke-width="1.5"/><path d="M315.09562,189.38484c0,0.82267 -0.6669,1.48957 -1.48957,1.48957c-0.82267,0 -1.48957,-0.6669 -1.48957,-1.48957c0,-0.82267 0.6669,-1.48957 1.48957,-1.48957c0.82267,0 1.48957,0.6669 1.48957,1.48957z" fill="#fff200" stroke-width="1.5"/><path d="M321.51941,190.03653c0,0.77125 -0.70859,1.39648 -1.58268,1.39648c-0.87409,0 -1.58268,-0.62522 -1.58268,-1.39648c0,-0.77125 0.70859,-1.39647 1.58268,-1.39647c0.87409,0 1.58268,0.62522 1.58268,1.39647z" fill="#fff200" stroke-width="1.5"/></g></g></g></svg>