<svg version="1.1" xmlns="http://www.w3.org/2000/svg" xmlns:xlink="http://www.w3.org/1999/xlink" width="18.33172" height="49.1051" viewBox="0,0,18.33172,49.1051"><g transform="translate(-3.25639,-139.61486)"><g data-paper-data="{&quot;isPaintingLayer&quot;:true}" fill-rule="nonzero" stroke="#000000" stroke-width="2" stroke-linejoin="miter" stroke-miterlimit="10" stroke-dasharray="" stroke-dashoffset="0" style="mix-blend-mode: normal"><path d="M4.37367,165.47551v-23.04159c0,-0.94263 0.76415,-1.70678 1.70678,-1.70678h12.80088c0.94263,0 1.70678,0.76415 1.70678,1.70678v23.04159c0,0.94263 -7.68053,10.6674 -7.68053,10.6674c0,0 -8.53392,-9.72477 -8.53392,-10.6674z" fill="#00fffd" stroke-linecap="butt"/><path d="M20.47839,179.12376c0,4.74755 -3.63142,8.5962 -8.111,8.5962c-4.47958,0 -8.111,-3.84865 -8.111,-8.5962c0,-4.74755 3.63142,-8.5962 8.111,-8.5962c4.08781,0 7.46933,3.20491 8.02953,7.37319c0.05369,0.39948 0.08147,0.80781 0.08147,1.22301z" fill="#ffc500" stroke-linecap="butt"/><path d="M10.08367,140.61486l0.22837,30.14518" fill="none" stroke-linecap="round"/><path d="M14.65112,141.0716l-0.22837,29.46006" fill="none" stroke-linecap="round"/></g></g></svg>