<svg version="1.1" xmlns="http://www.w3.org/2000/svg" xmlns:xlink="http://www.w3.org/1999/xlink" width="196.41197" height="183.23024" viewBox="0,0,196.41197,183.23024"><g transform="translate(-139.67968,-87.70522)"><g data-paper-data="{&quot;isPaintingLayer&quot;:true}" fill-rule="nonzero" stroke="#000000" stroke-width="2" stroke-linecap="butt" stroke-linejoin="miter" stroke-miterlimit="10" stroke-dasharray="" stroke-dashoffset="0" style="mix-blend-mode: normal"><path d="M264.27486,204.42048c31.7188,0 57.43197,14.66603 57.43197,32.75749c0,18.09146 -25.71317,32.75749 -57.43197,32.75749c-31.7188,0 -57.43197,-14.66603 -57.43197,-32.75749c0,-18.09146 25.71317,-32.75749 57.43197,-32.75749z" data-paper-data="{&quot;index&quot;:null}" fill="#9c9c9c"/><path d="M148.03807,215.34431l-4.25422,-98.6979l43.39304,12.76266v105.50465z" data-paper-data="{&quot;index&quot;:null}" fill="#9c9c9c"/><path d="M185.86634,130.65104l-42.5422,-15.31519l84.23355,-17.86772l9.35928,17.01688z" data-paper-data="{&quot;index&quot;:null}" fill="#9c9c9c"/><path d="M187.10832,233.60317l0.85084,-104.65381l62.96245,-18.71857l14.46435,86.78609z" data-paper-data="{&quot;index&quot;:null}" fill="#9c9c9c"/><path d="M299.92874,185.02386l-31.68896,-34.39412l19.70899,-6.76289l25.8922,33.42799z" data-paper-data="{&quot;index&quot;:null}" fill="#c3bc3d"/><path d="M236.06612,231.05063c1.08106,-6.77717 1.43875,-33.73804 9.50392,-40.04229c5.74065,-4.48726 11.40122,10.26275 16.87225,10.26275c4.27869,0 8.24501,-1.49651 10.50134,1.48101c4.68212,6.17869 0.6413,20.60868 -5.39628,25.746c-6.80675,5.7918 -0.45607,24.67448 -13.6135,24.67448c-13.15742,0 -20.42025,-6.12002 -17.86772,-22.12194z" data-paper-data="{&quot;index&quot;:null}" fill="#9c9c9c"/><path d="M210.64588,184.14916l14.46435,-95.29452l109.75887,17.86772l-27.22701,114.01309z" data-paper-data="{&quot;index&quot;:null}" fill="#9c9c9c"/><path d="M217.34756,180l10.21013,-82.53187l92.74199,20.42026l-17.86772,95.29453z" data-paper-data="{&quot;index&quot;:null}" fill="#000000"/></g></g></svg>