<svg version="1.1" xmlns="http://www.w3.org/2000/svg" xmlns:xlink="http://www.w3.org/1999/xlink" width="558" height="426" viewBox="0,0,558,426"><g transform="translate(35,23)"><g data-paper-data="{&quot;isPaintingLayer&quot;:true}" fill-rule="nonzero" stroke-linecap="butt" stroke-linejoin="miter" stroke-miterlimit="10" stroke-dasharray="" stroke-dashoffset="0" style="mix-blend-mode: normal"><path d="M-31,403c-2.20914,0 -4,-1.79086 -4,-4v-418c0,-2.20914 1.79086,-4 4,-4h550c2.20914,0 4,1.79086 4,4v418c0,2.20914 -1.79086,4 -4,4z" fill="#5b873c" stroke="none" stroke-width="0"/><text transform="translate(10.5,146.94286) scale(0.42712,0.42712)" font-size="40" xml:space="preserve" fill="#000000" fill-rule="nonzero" stroke="none" stroke-width="1" stroke-linecap="butt" stroke-linejoin="miter" stroke-miterlimit="10" stroke-dasharray="" stroke-dashoffset="0" font-family="Sans Serif" font-weight="normal" text-anchor="start" style="mix-blend-mode: normal"><tspan x="0" dy="0">Désolé mais ce jeux n'est pas fait pour les apareil mobile</tspan></text><path d="M176.34713,288.375l63.65287,-111.75l63.65287,111.75z" fill="#ffffff" stroke="#ff0000" stroke-width="8.5"/><path d="M237.81327,254.3c-0.97382,0 -1.76327,-1.79086 -1.76327,-4v-34c0,-2.20914 0.78944,-4 1.76327,-4h7.27347c0.97382,0 1.76327,1.79086 1.76327,4v34c0,2.20914 -0.78944,4 -1.76327,4z" fill="#000000" stroke="#000000" stroke-width="4"/><path d="M248.3,266.8283c0,3.73991 -3.31309,6.7717 -7.4,6.7717c-4.08691,0 -7.4,-3.03179 -7.4,-6.7717c0,-3.73991 3.31309,-6.7717 7.4,-6.7717c4.08691,0 7.4,3.03179 7.4,6.7717z" fill="#000000" stroke="#000000" stroke-width="4"/></g></g></svg>