<svg version="1.1" xmlns="http://www.w3.org/2000/svg" xmlns:xlink="http://www.w3.org/1999/xlink" width="161.79572" height="88.28586" viewBox="0,0,161.79572,88.28586"><g transform="translate(-3.25639,-139.61486)"><g data-paper-data="{&quot;isPaintingLayer&quot;:true}" fill-rule="nonzero" stroke="#000000" stroke-width="2" stroke-linejoin="miter" stroke-miterlimit="10" stroke-dasharray="" stroke-dashoffset="0" style="mix-blend-mode: normal"><path d="M4.37367,165.47551v-23.04159c0,-0.94263 0.76415,-1.70678 1.70678,-1.70678h12.80088c0.94263,0 1.70678,0.76415 1.70678,1.70678v23.04159c0,0.94263 -7.68053,10.6674 -7.68053,10.6674c0,0 -8.53392,-9.72477 -8.53392,-10.6674z" fill="#00fffd" stroke-linecap="butt"/><path d="M20.47839,179.12376c0,4.74755 -3.63142,8.5962 -8.111,8.5962c-4.47958,0 -8.111,-3.84865 -8.111,-8.5962c0,-4.74755 3.63142,-8.5962 8.111,-8.5962c4.08781,0 7.46933,3.20491 8.02953,7.37319c0.05369,0.39948 0.08147,0.80781 0.08147,1.22301z" fill="#ffc500" stroke-linecap="butt"/><path d="M10.08367,140.61486l0.22837,30.14518" fill="none" stroke-linecap="round"/><path d="M14.65112,141.0716l-0.22837,29.46006" fill="none" stroke-linecap="round"/><g fill="#c2c1a8" stroke-linecap="butt"><path d="M163.49209,167.32096c0.37379,1.87167 1.84787,7.49066 -2.30507,11.25152c-4.25091,3.84955 -10.5474,6.27497 -10.5474,6.27497c0,0 -1.24814,-3.7028 3.31988,-5.37504c3.53203,-1.29299 4.69505,-8.04102 4.83094,-10.18646c0.23385,-3.69218 -7.99166,-8.07612 -7.99166,-8.07612c0,0 4.49892,-3.33094 8.16063,-2.19474c3.57672,1.10984 4.0746,6.01214 4.53268,8.30587z"/><path d="M100.80451,166.40859c0.80454,-2.18843 2.00701,-6.92538 6.00197,-7.56825c4.08988,-0.65814 8.47137,3.16024 8.47137,3.16024c0,0 -9.4367,3.27132 -9.68803,6.91446c-0.14604,2.11694 0.18519,8.86653 3.805,10.57016c4.68155,2.20332 2.8361,5.67308 2.8361,5.67308c0,0 -6.43658,-3.1549 -10.48093,-7.45019c-3.95114,-4.1963 -1.60199,-9.51374 -0.94549,-11.29951z"/><path d="M131.03483,208.97231c-1.57377,0 -2.84955,-1.27579 -2.84955,-2.84955v-16.62237c0,-1.57377 1.27579,-2.84955 2.84955,-2.84955h2.84955c1.57377,0 2.84955,1.27579 2.84955,2.84955v16.62237c0,1.57377 -1.27579,2.84955 -2.84955,2.84955z"/><path d="M150.86293,176.83816c0,15.60042 -6.85274,21.69238 -19.24613,21.69238c-12.39338,0 -19.22277,-6.09197 -19.22277,-21.69238c0,-5.56783 -2.0398,-15.67658 1.59777,-19.35096c0.98053,-0.99046 1.84033,-2.7844 1.84033,-2.7844l15.55888,-0.53131l15.51348,0.62182c0,0 1.37169,0.75139 1.97972,1.20922c5.34298,4.0232 1.97871,13.46247 1.97871,20.83564z"/><path d="M121.66178,226.90072c-0.55124,0 -0.99812,-0.44687 -0.99812,-0.99812v-17.96609c0,-0.55124 0.44687,-0.99812 0.99812,-0.99812h20.96043c0.55124,0 0.99812,0.44687 0.99812,0.99812v17.96609c0,0.55124 -0.44687,0.99812 -0.99812,0.99812z"/></g><g fill="#c2725f" stroke-linecap="butt"><path d="M79.71031,181.83027c0.25094,1.25654 1.24057,5.02884 -1.54751,7.55369c-2.85384,2.58439 -7.08098,4.21269 -7.08098,4.21269c0,0 -0.83794,-2.48587 2.2288,-3.60853c2.37122,-0.86805 3.15202,-5.39833 3.24325,-6.83866c0.157,-2.47874 -5.36519,-5.42189 -5.36519,-5.42189c0,0 3.02035,-2.23622 5.47863,-1.47344c2.40123,0.74509 2.73548,4.03624 3.04301,5.57613z"/><path d="M37.62509,181.21776c0.54013,-1.4692 1.3474,-4.64934 4.02941,-5.08093c2.74574,-0.44184 5.68724,2.12163 5.68724,2.12163c0,0 -6.33532,2.1962 -6.50405,4.64202c-0.09804,1.4212 0.12432,5.95254 2.55448,7.09626c3.14295,1.47919 1.90401,3.80861 1.90401,3.80861c0,0 -4.32119,-2.11804 -7.03636,-5.00168c-2.65259,-2.81718 -1.0755,-6.38703 -0.63475,-7.58591z"/><path d="M57.92017,209.79285c-1.05655,0 -1.91304,-0.8565 -1.91304,-1.91304v-11.15941c0,-1.05655 0.8565,-1.91304 1.91304,-1.91304h1.91304c1.05655,0 1.91304,0.8565 1.91304,1.91304v11.15941c0,1.05655 -0.8565,1.91304 -1.91304,1.91304z"/><path d="M71.23175,188.21964c0,10.47332 -4.60058,14.56315 -12.92086,14.56315c-8.32028,0 -12.90518,-4.08984 -12.90518,-14.56315c0,-3.73796 -1.36942,-10.52445 1.07266,-12.99124c0.65828,-0.66494 1.2355,-1.8693 1.2355,-1.8693l10.44544,-0.3567l10.41496,0.41745c0,0 0.92088,0.50444 1.32908,0.81181c3.587,2.70097 1.3284,9.03801 1.3284,13.98798z"/><path d="M51.62759,221.82907c-0.37008,0 -0.67008,-0.30001 -0.67008,-0.67008v-12.06151c0,-0.37008 0.30001,-0.67008 0.67008,-0.67008h14.07176c0.37008,0 0.67008,0.30001 0.67008,0.67008v12.06151c0,0.37008 -0.30001,0.67008 -0.67008,0.67008z"/></g></g></g></svg>